<?xml version="1.0" encoding="UTF-8" standalone="no"?>
<svg
   width="32"
   height="32"
   viewBox="0 0 32 32"
   version="1.1"
   xml:space="preserve"
   style="clip-rule:evenodd;fill-rule:evenodd;stroke-linejoin:round;stroke-miterlimit:2"
   id="svg6"
   sodipodi:docname="favicon.svg"
   inkscape:version="1.4 (e7c3feb100, 2024-10-09)"
   xmlns:inkscape="http://www.inkscape.org/namespaces/inkscape"
   xmlns:sodipodi="http://sodipodi.sourceforge.net/DTD/sodipodi-0.dtd"
   xmlns="http://www.w3.org/2000/svg"
   xmlns:svg="http://www.w3.org/2000/svg"><defs
   id="defs6" /><sodipodi:namedview
   id="namedview6"
   pagecolor="#505050"
   bordercolor="#eeeeee"
   borderopacity="1"
   inkscape:showpageshadow="0"
   inkscape:pageopacity="0"
   inkscape:pagecheckerboard="0"
   inkscape:deskcolor="#d1d1d1"
   inkscape:zoom="13.186571"
   inkscape:cx="18.882846"
   inkscape:cy="23.736269"
   inkscape:window-width="1503"
   inkscape:window-height="930"
   inkscape:window-x="0"
   inkscape:window-y="0"
   inkscape:window-maximized="1"
   inkscape:current-layer="svg6" />
    
    <g
   id="g7"
   transform="matrix(0.03120756,0,0,0.03120756,-0.030388,0.0242517)"><g
     id="Background"
     transform="matrix(0.998503,0,0,0.999622,3.5539673,0.361154)">
        <ellipse
   style="clip-rule:evenodd;display:inline;fill:#ffffff;fill-rule:evenodd;stroke-width:1.00157;stroke-linejoin:round;stroke-miterlimit:2;paint-order:stroke fill markers"
   id="path6"
   cx="509.67273"
   cy="512.77576"
   rx="509.673"
   ry="509.67273"
   transform="matrix(1.0014992,0,0,1.0003781,-0.45161306,-0.36129057)"
   inkscape:label="Circle" />
    </g><g
     transform="matrix(1.15231,0,0,1.15231,-75.6155,-78.3947)"
     id="g6"
     style="display:inline">
        <g
   transform="matrix(0.997466,1.72766,-1.72766,0.997466,671.784,-850.606)"
   id="g1">
            <path
   d="m 541.693,490.899 c 0.248,1.137 0.45,2.291 0.605,3.46 l 0.021,0.12 h -0.006 c 0.234,1.808 0.355,3.65 0.355,5.521 0,23.549 -19.119,42.668 -42.668,42.668 -23.549,0 -42.668,-19.119 -42.668,-42.668 0,-3.163 0.345,-6.246 0.999,-9.213 l 41.615,-239.009 z"
   style="fill:#005bbf;fill-opacity:0.5"
   id="path1" />
        </g>
        <g
   transform="matrix(0,1.99493,-1.99493,0,1303.71,-485.554)"
   id="g2">
            <path
   d="m 541.693,490.899 c 0.248,1.137 0.45,2.291 0.605,3.46 l 0.021,0.12 h -0.006 c 0.234,1.808 0.355,3.65 0.355,5.521 0,23.549 -19.119,42.668 -42.668,42.668 -23.549,0 -42.668,-19.119 -42.668,-42.668 0,-3.163 0.345,-6.246 0.999,-9.213 l 41.615,-239.009 z"
   style="fill:#005bbf;fill-opacity:0.5"
   id="path2" />
        </g>
        <g
   transform="matrix(1.72766,0.997466,-0.997466,1.72766,-59.1095,-850.303)"
   id="g3">
            <path
   d="m 541.693,490.899 c 0.248,1.137 0.45,2.291 0.605,3.46 l 0.021,0.12 h -0.006 c 0.234,1.808 0.355,3.65 0.355,5.521 0,23.549 -19.119,42.668 -42.668,42.668 -23.549,0 -42.668,-19.119 -42.668,-42.668 0,-3.163 0.345,-6.246 0.999,-9.213 l 41.615,-239.009 z"
   style="fill:#005bbf;fill-opacity:0.5"
   id="path3" />
        </g>
        <g
   transform="matrix(-1.72766,0.997466,-0.997466,-1.72766,1668.81,877.548)"
   id="g4">
            <path
   d="m 541.693,490.899 c 0.248,1.137 0.45,2.291 0.605,3.46 l 0.021,0.12 h -0.006 c 0.234,1.808 0.355,3.65 0.355,5.521 0,23.549 -19.119,42.668 -42.668,42.668 -23.549,0 -42.668,-19.119 -42.668,-42.668 0,-3.163 0.345,-6.246 0.999,-9.213 l 41.615,-239.009 z"
   style="fill:#005bbf;fill-opacity:0.5"
   id="path4" />
        </g>
        <g
   transform="matrix(-0.997466,1.72766,-1.72766,-0.997466,1669.37,147.523)"
   id="g5">
            <path
   d="m 541.693,490.899 c 0.248,1.137 0.45,2.291 0.605,3.46 l 0.021,0.12 h -0.006 c 0.234,1.808 0.355,3.65 0.355,5.521 0,23.549 -19.119,42.668 -42.668,42.668 -23.549,0 -42.668,-19.119 -42.668,-42.668 0,-3.163 0.345,-6.246 0.999,-9.213 l 41.615,-239.009 z"
   style="fill:#005bbf;fill-opacity:0.5"
   id="path5" />
        </g>
    </g></g>
</svg>
